Coordinates
version=1
nRows=6
nColumns=63
inDegrees=yes

Units are S.I. units (second, meters, Newtons, ...)
If the header above contains a line with 'inDegrees', this indicates whether rotational values are in degrees (yes) or radians (no).

endheader
time	pelvis_tilt	pelvis_list	pelvis_rotation	pelvis_tx	pelvis_ty	pelvis_tz	hip_flexion_r	hip_adduction_r	hip_rotation_r	knee_angle_r	knee_angle_r_beta	ankle_angle_r	subtalar_angle_r	mtp_angle_r	hip_flexion_l	hip_adduction_l	hip_rotation_l	knee_angle_l	knee_angle_l_beta	ankle_angle_l	subtalar_angle_l	mtp_angle_l	L5_S1_Flex_Ext	L5_S1_Lat_Bending	L5_S1_axial_rotation	L4_L5_Flex_Ext	L4_L5_Lat_Bending	L4_L5_axial_rotation	L3_L4_Flex_Ext	L3_L4_Lat_Bending	L3_L4_axial_rotation	L2_L3_Flex_Ext	L2_L3_Lat_Bending	L2_L3_axial_rotation	L1_L2_Flex_Ext	L1_L2_Lat_Bending	L1_L2_axial_rotation	L1_T12_Flex_Ext	L1_T12_Lat_Bending	L1_T12_axial_rotation	Abs_r3	Abs_r2	Abs_r1	Abs_t1	Abs_t2	neck_flexion	neck_bending	neck_rotation	arm_flex_r	arm_add_r	arm_rot_r	elbow_flex_r	pro_sup_r	wrist_flex_r	wrist_dev_r	arm_flex_l	arm_add_l	arm_rot_l	elbow_flex_l	pro_sup_l	wrist_flex_l	wrist_dev_l
     14.36666667	      3.51561964	      2.43655052	    182.44685568	      0.04804901	      0.90204508	      0.64708027	     21.56527409	     -4.83023149	     -5.25611763	     71.03269178	      1.23975435	      8.22685229	    -17.43933417	      0.00000000	     11.14977840	      0.24394707	     -0.93832400	     16.29285144	      0.28436390	     14.65411689	     -8.66604125	      0.00000000	     -0.00100376	      0.13408978	     -0.84302963	     -0.00186408	      0.17833940	     -0.89571898	     -0.00164907	      0.32602588	     -0.89571898	     -0.00114720	      0.32602588	     -0.73765093	     -0.00093209	      0.27343587	     -0.68496158	     -0.00057355	      0.20770506	     -0.63227222	     -0.00716975	      1.51685037	     -4.68867790	      0.00000000	      0.00000000	      0.00000000	      0.00000000	      0.00000000	     -4.99215291	    -11.32065334	     12.83422020	     27.23996756	     42.20714689	      0.00000000	      5.00000014	     -6.38907760	    -12.07448202	     10.72272511	     22.70735900	     50.39982682	      0.00000000	      5.00000014
     14.40000000	      3.73813640	      2.17808588	    183.75171304	      0.01908340	      0.90363853	      0.64862507	     25.72479617	     -6.07384604	     -7.82593080	     67.49617546	      1.17803049	     13.78716260	    -16.38788502	      0.00000000	      8.70037665	      0.51662570	      0.22868254	     14.59015683	      0.25464628	     15.45087716	     -7.24110479	      0.00000000	      0.00016332	      0.09239411	     -1.18416977	      0.00030330	      0.12288417	     -1.25818038	      0.00026832	      0.22464705	     -1.25818038	      0.00018666	      0.22464705	     -1.03614855	      0.00015166	      0.18841008	     -0.96213794	      0.00009332	      0.14311848	     -0.88812732	      0.00116658	      1.04518070	     -6.58599699	      0.00000000	      0.00000000	      0.00000000	      0.00000000	      0.00000000	     -6.45769124	    -11.25767298	     13.69905528	     26.18911139	     42.53925375	      0.00000000	      5.00000014	     -3.72314138	    -13.72466750	     11.28732132	     25.04410287	     50.66945453	      0.00000000	      5.00000014
     14.43333333	      4.17205829	      1.84149809	    185.17441749	     -0.00769369	      0.90357121	      0.64994965	     28.96238925	     -7.99588966	    -11.77333209	     61.25005109	      1.06901506	     17.44849389	    -12.65238949	      0.00000000	      7.19152193	      0.67818942	      0.12774301	     13.99064183	      0.24418276	     16.91919419	     -4.23548853	      0.00000000	     -0.00177872	      0.04445818	     -1.49670467	     -0.00330325	      0.05912938	     -1.59024871	     -0.00292225	      0.10809562	     -1.59024871	     -0.00203289	      0.10809562	     -1.30961659	     -0.00165172	      0.09065912	     -1.21607255	     -0.00101636	      0.06886572	     -1.12252850	     -0.01270519	      0.50291982	     -8.32422237	      0.00000000	      0.00000000	      0.00000000	      0.00000000	      0.00000000	     -8.00891428	    -11.44551141	     14.78136294	     25.65835625	     43.01016356	      0.00000000	      5.00000014	     -0.92296547	    -15.75175445	     13.46683824	     27.71281652	     51.30177807	      0.00000000	      5.00000014
     14.46666667	      4.71458148	      1.67778739	    186.18957594	     -0.03382192	      0.90201539	      0.64999024	     31.07012435	     -9.25012800	    -15.81481425	     53.02032069	      0.92537917	     17.92594254	     -7.98719212	      0.00000000	      6.18869651	     -0.09819031	     -5.89378856	     14.28381593	      0.24929962	     20.19159470	      6.12549616	      0.00000000	     -0.00276483	      0.01815063	     -1.66626049	     -0.00513457	      0.02414033	     -1.77040177	     -0.00454234	      0.04413143	     -1.77040177	     -0.00315993	      0.04413143	     -1.45797793	     -0.00256742	      0.03701276	     -1.35383665	     -0.00157982	      0.02811532	     -1.24969537	     -0.01974891	      0.20532352	     -9.26724096	      0.00000000	      0.00000000	      0.00000000	      0.00000000	      0.00000000	    -10.04088828	    -11.52614757	     14.25281673	     25.83593365	     43.50958250	      0.00000000	      5.00000014	      1.82141086	    -18.11599880	     17.55704670	     30.82743693	     52.17151374	      0.00000000	      5.00000014
     14.50000000	      5.33946742	      1.49564385	    187.55872595	     -0.06028495	      0.89907956	      0.65045946	     32.19494850	    -10.38604688	    -20.21601125	     44.21175735	      0.77164073	     16.57278182	     -1.88067510	      0.00000000	      5.32990073	     -0.24651516	     -7.45792427	     14.75227232	      0.25747572	     22.20766935	      9.69699719	      0.00000000	     -0.00370372	     -0.00508178	     -1.88781611	     -0.00687819	     -0.00675877	     -2.00580462	     -0.00608485	     -0.01235584	     -2.00580462	     -0.00423299	     -0.01235584	     -1.65183910	     -0.00343928	     -0.01036277	     -1.53385059	     -0.00211631	     -0.00787168	     -1.41586209	     -0.02645533	     -0.05748612	    -10.49946688	      0.00000000	      0.00000000	      0.00000000	      0.00000000	      0.00000000	    -12.30256353	    -11.47462152	     12.66678105	     26.52182293	     43.24027960	      0.00000000	      5.00000014	      3.44811170	    -19.47785592	     16.79053863	     34.53001810	     51.92677904	      0.00000000	      5.00000014
     14.53333333	      5.98892734	      1.29205936	    188.41313328	     -0.08815508	      0.89505861	      0.64983106	     33.28382414	    -10.46266725	    -22.33638420	     36.01141459	      0.62851775	     13.93630848	      2.57747576	      0.00000000	      4.30713464	     -0.69488946	    -11.44347616	     15.34954567	      0.26790011	     24.47285261	     15.27175422	      0.00000000	     -0.00476173	     -0.02578870	     -2.02402736	     -0.00884301	     -0.03429897	     -2.15052907	     -0.00782304	     -0.06270264	     -2.15052907	     -0.00544218	     -0.06270264	     -1.77102394	     -0.00442174	     -0.05258831	     -1.64452223	     -0.00272085	     -0.03994669	     -1.51802052	     -0.03401255	     -0.29172691	    -11.25703296	      0.00000000	      0.00000000	      0.00000000	      0.00000000	      0.00000000	    -14.66063277	    -10.75157911	      8.47643315	     27.33849275	     42.39523155	      0.00000000	      5.00000014	      4.72681532	    -20.95794003	     16.73095730	     38.26777931	     51.39296302	      0.00000000	      5.00000014
